<?xml version="1.0" standalone="no"?>
<!DOCTYPE svg PUBLIC "-//W3C//DTD SVG 20010904//EN"
 "http://www.w3.org/TR/2001/REC-SVG-20010904/DTD/svg10.dtd">
<svg version="1.0" xmlns="http://www.w3.org/2000/svg"
 width="260.000000pt" height="260.000000pt" viewBox="0 0 260.000000 260.000000"
 preserveAspectRatio="xMidYMid meet">
<metadata>
Created by potrace 1.11, written by Peter Selinger 2001-2013
</metadata>
<g transform="translate(0.000000,260.000000) scale(0.100000,-0.100000)"
fill="#000000" stroke="none">
<path d="M1031 2484 c-480 -81 -868 -467 -947 -944 -2 -14 -7 -36 -10 -50 -6
-28 -6 -242 0 -280 3 -14 7 -41 10 -60 25 -159 102 -342 204 -480 395 -538
1163 -635 1672 -211 207 173 341 397 396 661 19 89 25 303 12 392 -62 426
-368 792 -776 927 -163 55 -394 73 -561 45z"/>
</g>
</svg>
