<?xml version="1.0" standalone="no"?>
<!DOCTYPE svg PUBLIC "-//W3C//DTD SVG 20010904//EN"
 "http://www.w3.org/TR/2001/REC-SVG-20010904/DTD/svg10.dtd">
<svg version="1.0" xmlns="http://www.w3.org/2000/svg"
 width="2084.000000pt" height="2084.000000pt" viewBox="0 0 2084.000000 2084.000000"
 preserveAspectRatio="xMidYMid meet">
<metadata>
Created by potrace 1.11, written by Peter Selinger 2001-2013
</metadata>
<g transform="translate(0.000000,2084.000000) scale(0.100000,-0.100000)"
fill="#000000" stroke="none">
<path d="M10137 20624 c-1 -1 -78 -5 -172 -8 -93 -4 -188 -9 -210 -11 -22 -1
-85 -6 -140 -10 -55 -4 -113 -8 -130 -10 -84 -8 -163 -16 -185 -20 -14 -2 -55
-7 -92 -10 -37 -3 -75 -8 -86 -10 -10 -2 -43 -6 -73 -10 -30 -3 -65 -8 -79
-10 -14 -2 -43 -6 -65 -10 -23 -3 -52 -7 -65 -10 -13 -3 -42 -7 -65 -10 -22
-3 -62 -10 -90 -15 -27 -5 -66 -12 -85 -15 -19 -3 -91 -17 -160 -31 -69 -14
-138 -27 -155 -30 -83 -14 -466 -109 -625 -154 -163 -46 -254 -74 -370 -111
-145 -47 -346 -116 -375 -129 -11 -5 -60 -23 -110 -41 -49 -18 -94 -36 -100
-41 -5 -4 -15 -8 -23 -8 -7 0 -38 -11 -68 -25 -30 -14 -59 -25 -64 -25 -6 0
-18 -4 -28 -10 -9 -5 -91 -42 -182 -81 -845 -366 -1659 -863 -2385 -1458 -136
-111 -264 -219 -296 -251 -9 -8 -44 -40 -79 -70 -128 -112 -398 -376 -585
-572 -174 -182 -358 -394 -539 -618 -37 -47 -76 -94 -85 -105 -182 -224 -522
-718 -714 -1040 -229 -384 -457 -830 -622 -1215 -31 -74 -64 -148 -73 -165 -9
-16 -15 -30 -13 -30 3 0 -8 -28 -56 -150 -42 -108 -120 -325 -175 -490 -36
-108 -145 -468 -153 -505 -2 -8 -15 -60 -30 -115 -14 -55 -28 -109 -30 -120
-1 -11 -8 -40 -15 -65 -7 -25 -14 -52 -16 -60 -22 -101 -64 -291 -67 -310 -14
-76 -48 -259 -52 -280 -3 -14 -12 -70 -20 -125 -8 -55 -17 -109 -19 -120 -2
-11 -7 -42 -10 -70 -4 -27 -8 -61 -11 -75 -4 -27 -11 -84 -20 -170 -3 -30 -8
-71 -10 -90 -10 -82 -25 -244 -30 -332 -2 -35 -7 -106 -10 -158 -21 -318 -21
-912 0 -1210 3 -47 8 -114 10 -150 5 -86 15 -198 20 -235 2 -16 6 -66 10 -110
4 -44 8 -87 10 -95 2 -8 7 -37 10 -65 3 -27 8 -63 10 -80 2 -16 7 -52 10 -80
3 -27 8 -61 10 -75 3 -14 7 -38 9 -55 3 -16 13 -75 22 -130 9 -55 18 -113 21
-130 2 -16 18 -97 34 -180 254 -1282 753 -2503 1467 -3590 265 -404 592 -837
858 -1135 46 -52 141 -158 198 -220 60 -66 514 -519 574 -573 24 -21 86 -77
140 -124 53 -47 113 -100 132 -117 57 -51 248 -207 350 -286 52 -41 97 -77
100 -80 3 -3 36 -28 74 -55 37 -28 100 -74 140 -102 83 -62 534 -366 556 -377
8 -3 47 -26 85 -51 67 -42 209 -127 250 -151 11 -6 38 -21 60 -34 297 -170
714 -375 1055 -520 211 -89 607 -240 630 -240 6 0 18 -4 28 -9 58 -31 565
-183 822 -247 64 -16 107 -26 120 -29 8 -2 87 -19 175 -39 88 -19 171 -38 185
-40 23 -4 94 -18 160 -31 56 -11 389 -64 439 -70 30 -4 61 -8 70 -10 9 -1 43
-6 76 -9 33 -4 71 -9 85 -11 28 -4 106 -12 195 -20 134 -12 182 -16 215 -20
19 -2 96 -7 170 -11 74 -3 160 -8 190 -10 73 -4 761 -4 825 0 28 2 113 7 190
11 77 4 156 8 175 10 36 3 160 14 215 20 17 1 68 6 115 10 47 4 88 9 91 11 3
1 37 6 75 9 38 3 76 8 84 10 8 2 33 6 55 9 287 40 600 96 860 156 28 7 61 14
74 16 14 3 28 7 31 9 4 2 22 7 40 10 19 3 68 15 110 26 41 12 83 22 93 24 69
14 419 119 602 181 121 41 227 76 235 78 8 2 29 10 45 17 17 6 35 13 40 14 32
8 429 170 595 243 321 142 901 443 1120 582 8 5 78 49 155 96 337 209 659 438
995 709 127 102 164 132 184 150 6 6 45 40 88 77 124 107 145 127 295 266 235
219 511 503 684 702 40 47 76 87 79 90 14 12 214 255 297 360 168 215 453 610
453 630 0 6 5 10 10 10 6 0 10 6 10 14 0 8 3 16 8 18 22 9 319 497 447 733 21
39 50 93 65 120 40 72 183 358 220 440 18 39 45 98 61 132 37 78 104 235 159
373 23 58 48 119 55 135 39 90 224 621 225 647 1 4 8 27 16 50 23 65 111 377
140 497 52 215 84 352 89 379 3 15 7 38 10 52 12 54 38 186 40 205 3 18 18
102 29 160 2 11 7 40 10 65 3 25 8 56 11 70 2 13 7 42 10 65 4 22 8 51 10 65
6 37 18 130 30 228 2 20 7 66 10 102 4 36 8 76 10 90 6 32 12 108 20 235 4 55
8 111 10 125 9 62 18 400 18 670 0 316 -11 636 -28 800 -2 25 -7 79 -10 120
-3 41 -8 91 -10 110 -3 19 -7 60 -10 90 -11 103 -30 257 -40 320 -2 14 -7 48
-11 75 -3 28 -8 59 -10 70 -2 10 -6 35 -9 55 -3 20 -7 47 -10 60 -3 13 -7 42
-11 65 -17 120 -77 402 -141 665 -19 80 -36 152 -38 160 -25 120 -217 734
-280 895 -12 33 -35 94 -50 135 -149 404 -434 1012 -655 1395 -32 55 -67 116
-77 135 -38 67 -166 275 -215 348 -26 41 -48 75 -48 77 0 7 -250 366 -337 484
-78 105 -232 305 -275 356 -152 182 -204 243 -266 315 -295 335 -674 713 -992
985 -58 50 -132 113 -165 140 -33 27 -62 52 -65 55 -3 3 -41 34 -85 68 -44 35
-87 69 -95 75 -9 7 -42 33 -75 57 -33 25 -62 47 -65 50 -3 3 -30 23 -60 45
-30 22 -59 43 -65 48 -103 86 -811 545 -925 601 -8 4 -24 12 -35 19 -132 79
-490 265 -713 370 -633 299 -1432 573 -2077 713 -38 9 -79 17 -90 20 -11 2
-33 7 -50 10 -16 3 -34 7 -40 8 -9 2 -43 9 -110 23 -100 19 -295 54 -360 63
-44 7 -88 14 -99 16 -10 2 -37 5 -60 8 -22 3 -72 10 -111 15 -38 5 -95 12
-125 16 -30 3 -71 8 -90 10 -19 3 -63 7 -97 10 -34 3 -79 7 -100 10 -21 3 -74
7 -118 10 -44 3 -105 8 -135 10 -141 11 -380 18 -653 19 -164 1 -299 1 -300 0z"/>
</g>
</svg>
